<?xml version="1.0" encoding="UTF-8"?>
<svg width="27px" height="24px" viewBox="0 0 27 24" version="1.1" xmlns="http://www.w3.org/2000/svg" xmlns:xlink="http://www.w3.org/1999/xlink">
    <title>1</title>
    <g id="Page-1" stroke="none" stroke-width="1" fill="none" fill-rule="evenodd">
        <g id="Artboard" transform="translate(-61.000000, -182.000000)" fill="#FF7800" fill-rule="nonzero">
            <g id="党建工作" transform="translate(32.000000, 103.000000)">
                <g id="Group-10" transform="translate(29.000000, 77.000000)">
                    <g id="1" transform="translate(0.000000, 2.000000)">
                        <path d="M23.5974733,17.336739 L21.2173115,17.336739 L21.2173115,18.6370551 L23.5970565,18.6370551 L23.5970565,19.5997891 L21.2173115,19.5997891 L21.2173115,22.3762973 L20.2620793,22.3762973 L20.2620793,19.5997891 L18.0277862,19.5997891 L18.0277862,18.6370551 L20.2620793,18.6370551 L20.2620793,17.336739 L18.0277862,17.336739 L18.0277862,16.374005 L19.9865956,16.374005 L18.1569843,14.5443936 L18.8371496,13.8704798 L20.7963758,15.828039 L22.7551853,13.8704798 L23.4353506,14.5443936 L21.6057392,16.374005 L23.5649654,16.374005 L23.5974733,17.336739 Z M20.7638679,11.5590846 C17.4934896,11.5590846 14.8540981,14.1913912 14.8540981,17.4492664 C14.8540981,20.7071416 17.4939064,23.3390313 20.7638679,23.3390313 C24.0346629,23.3390313 26.6736377,20.7071416 26.6736377,17.4492664 C26.6736377,14.2072284 24.0346629,11.5590846 20.7638679,11.5590846 Z M2.75949158,15.3787631 L0.49310735,17.3688302 L2.20935786,19.3755679 L1.91762028,19.7764987 C1.12451084,19.6964793 0.784428171,20.0653189 0.784428171,20.0653189 C-1.19105201,21.9753665 1.18910988,23.0343739 1.18910988,23.0343739 C3.50467273,23.5482489 3.39131184,21.1726714 3.39131182,21.1726714 L3.82850142,20.6271222 C9.54364059,23.7245417 13.720906,22.9381006 15.9231079,22.0395488 C14.9999669,21.0768148 14.3848173,19.8248438 14.1906035,18.4445083 C8.11912768,21.7344746 2.75949158,15.3787631 2.75949158,15.3787631 Z M19.4364619,10.981861 C20.7466677,10.7253204 22.1033608,10.8590768 23.3382436,11.3665379 C23.3790869,10.5209156 23.2753117,9.67445992 23.0306689,8.86301267 C20.2304049,-0.477174313 11.276145,0.00419268376 11.276145,0.00419268376 C18.4812297,3.51879697 19.6952748,7.88402471 19.4364619,10.981861 Z M7.37394655,10.8372425 L14.1097505,17.3688302 C14.1418416,15.5392188 14.9028599,13.902571 16.1173218,12.7310362 L10.9198084,7.43474883 L13.7042353,4.38567435 L11.7937709,2.62024524 L10.2879882,3.98432679 L7.47063672,3.95223567 L1.7392436,9.76198117 L5.22050644,12.907329 L7.37352978,10.8372425 L7.37394655,10.8372425 Z" id="Shape"></path>
                    </g>
                </g>
            </g>
        </g>
    </g>
</svg>