<?xml version="1.0" encoding="UTF-8"?>
<svg width="24px" height="26px" viewBox="0 0 24 26" version="1.1" xmlns="http://www.w3.org/2000/svg" xmlns:xlink="http://www.w3.org/1999/xlink">
    <title>3</title>
    <g id="Page-1" stroke="none" stroke-width="1" fill="none" fill-rule="evenodd">
        <g id="Artboard" transform="translate(-66.000000, -287.000000)" fill-rule="nonzero">
            <g id="党建工作" transform="translate(32.000000, 103.000000)">
                <g id="3" transform="translate(34.000000, 184.000000)">
                    <path d="M22.9774306,16.490162 C22.9652778,16.4777199 22.9528356,16.4652778 22.9403935,16.453125 C21.5769676,15.1108218 19.4036458,15.0630787 17.9826389,16.3440394 C17.9817708,16.3434606 17.9809028,16.3425926 17.9803241,16.3420139 L16.2838542,17.7531829 C16.1209491,17.8885995 15.8793403,17.8663194 15.7439236,17.7037037 C15.6085069,17.541088 15.630787,17.2991898 15.7934028,17.1637731 L17.3373843,15.8796296 C15.9615162,15.1030093 14.1950231,15.3015046 13.0248843,16.4534144 C11.6331019,17.8269676 11.6180556,20.0688657 12.9916088,21.4606481 C13.0026042,21.4719329 13.0135995,21.4829282 13.0248843,21.4939236 L17.1782407,25.6096644 C17.6145833,26.0538194 18.3287037,26.0601852 18.7728588,25.6238426 C18.7774884,25.619213 18.7824074,25.6145833 18.787037,25.6096644 L22.9403935,21.4976852 C24.3333333,20.125 24.3498264,17.8831019 22.9774306,16.490162 L22.9774306,16.490162 Z" id="Path" fill="#FF7800"></path>
                    <path d="M8.84268573,10.9207019 C10.8591868,12.9371326 14.1285239,12.9370755 16.1449546,10.9205745 C18.1613852,8.90407342 18.1613282,5.6347363 16.1448271,3.61830564 C14.8403797,2.31390372 12.9391304,1.80450107 11.1572614,2.28198474 C9.3753925,2.75946841 7.98361222,4.15129728 7.50619074,5.93318288 C7.02876927,7.71506847 7.53823828,9.61629999 8.84268573,10.9207019 L8.84268573,10.9207019 Z" id="Path" fill="#000000"></path>
                    <path d="M13.770544,14.4019097 C15.2199074,14.1458333 16.5541088,13.4542824 17.6163194,12.3917824 C18.9846644,11.0234375 19.7381366,9.20428241 19.7381366,7.26938657 C19.7381366,5.33449074 18.9846644,3.5150463 17.6163194,2.14699074 C16.2479745,0.778645833 14.4288194,0.0251736111 12.4939236,0.0251736111 C10.5590278,0.0251736111 8.73987269,0.778645833 7.37152778,2.14699074 C6.00318287,3.51533565 5.24971065,5.33449074 5.24971065,7.26938657 C5.24971065,9.20428241 6.00318287,11.0237269 7.37152778,12.3917824 C7.65277778,12.6730324 7.95659722,12.9308449 8.27951389,13.1629051 C8.06365741,13.2404514 7.84982639,13.3240741 7.63831019,13.4131944 C6.15277778,14.0413773 4.81886574,14.9406829 3.67361111,16.0859375 C2.52835648,17.2311921 1.62905093,18.5651042 1.00086806,20.0506366 C0.350115741,21.5894097 0.0202546296,23.2230903 0.0202546296,24.9065394 C0.0202546296,25.4811921 0.486111111,25.9470486 1.06076389,25.9470486 L15.7115162,25.9470486 C16.6791088,25.9470486 10.6854745,23.3356481 10.6536458,19.2010995 C10.6232639,15.3032407 13.4470486,14.4832176 13.770544,14.4019097 Z" id="Path" fill="#FF7800"></path>
                </g>
            </g>
        </g>
    </g>
</svg>