<?xml version="1.0" encoding="UTF-8"?>
<svg width="15px" height="24px" viewBox="0 0 15 24" version="1.1" xmlns="http://www.w3.org/2000/svg" xmlns:xlink="http://www.w3.org/1999/xlink">
    <title>dingwei</title>
    <g id="Page-1" stroke="none" stroke-width="1" fill="none" fill-rule="evenodd">
        <g id="Artboard" transform="translate(-32.000000, -45.000000)" fill="#CFE7FF" fill-rule="nonzero">
            <g id="定位" transform="translate(32.000000, 42.000000)">
                <g id="dingwei" transform="translate(0.000000, 3.000000)">
                    <path d="M9.911664,18.3487371 L9.45020571,19.3238503 C11.9293371,19.6478914 13.4273211,20.4659211 13.4273211,21.0715166 C13.4273211,21.8421771 11.0092731,22.961784 7.22103086,22.961784 C3.43276114,22.961784 1.016112,21.8421771 1.016112,21.0715166 C1.016112,20.355576 3.10381029,19.3414869 6.436272,19.2003943 L7.21913829,20.8318731 L12.6004869,9.62302286 L12.5943154,9.62302286 C13.1248937,8.67958971 13.4334651,7.58787771 13.4334651,6.42049029 C13.4334651,2.88363086 10.6514949,0.0158914286 7.221936,0.0158914286 C3.79196571,0.0158914286 1.00994057,2.88363086 1.00994057,6.42049029 C1.00994057,7.58790514 1.31853943,8.67961714 1.84629257,9.62302286 L1.84201371,9.62302286 L5.95495543,18.19596 C2.83498286,18.4034023 0.0174102857,19.3824651 0.0174102857,21.0714891 C0.0174102857,22.988088 3.64097143,23.9909863 7.22100343,23.9909863 C10.801008,23.9909863 14.425008,22.988088 14.425008,21.0714891 C14.425008,19.6450114 12.4158651,18.7255234 9.911664,18.3487371 Z M4.61216229,5.63183657 C4.61216229,4.14575657 5.78026286,2.94027086 7.220976,2.94027086 C8.66358171,2.94027086 9.83116114,4.14575657 9.83116114,5.63183657 C9.83116114,7.116984 8.66358171,8.32145486 7.220976,8.32145486 C5.78026286,8.3214 4.61216229,7.11695657 4.61216229,5.63183657 Z" id="形状"></path>
                </g>
            </g>
        </g>
    </g>
</svg>