<?xml version="1.0" encoding="UTF-8"?>
<svg width="26px" height="25px" viewBox="0 0 26 25" version="1.1" xmlns="http://www.w3.org/2000/svg" xmlns:xlink="http://www.w3.org/1999/xlink">
    <title>4</title>
    <g id="Page-1" stroke="none" stroke-width="1" fill="none" fill-rule="evenodd">
        <g id="Artboard" transform="translate(-63.000000, -342.000000)" fill="#E46D03" fill-rule="nonzero">
            <g id="党建工作" transform="translate(32.000000, 103.000000)">
                <g id="4" transform="translate(31.000000, 239.000000)">
                    <path d="M21.85625,10.2375 C21.85625,4.55 16.98125,0 10.8875,0 C4.875,0 0,4.63125 0,10.2375 C0,12.10625 0.56875,13.89375 1.4625,15.35625 L0.40625,18.93125 C0.1625,19.825 0.65,20.23125 1.4625,19.9875 L4.875,18.85 C6.58125,19.90625 8.6125,20.475 10.80625,20.475 C16.98125,20.55625 21.85625,15.925 21.85625,10.2375 Z M16.4125,8.85625 C17.14375,8.85625 17.79375,9.50625 17.79375,10.2375 C17.79375,10.96875 17.14375,11.61875 16.4125,11.61875 C15.68125,11.61875 15.03125,10.96875 15.03125,10.2375 C15.03125,9.50625 15.68125,8.85625 16.4125,8.85625 Z M5.44375,11.61875 C4.7125,11.61875 4.0625,10.96875 4.0625,10.2375 C4.0625,9.50625 4.7125,8.85625 5.44375,8.85625 C6.175,8.85625 6.825,9.50625 6.825,10.2375 C6.825,10.96875 6.25625,11.61875 5.44375,11.61875 Z M9.5875,10.2375 C9.5875,9.50625 10.2375,8.85625 10.96875,8.85625 C11.7,8.85625 12.35,9.50625 12.35,10.2375 C12.35,10.96875 11.7,11.61875 10.96875,11.61875 C10.2375,11.61875 9.5875,11.05 9.5875,10.2375 Z" id="Shape"></path>
                    <path d="M24.5375,19.5 C25.43125,17.95625 26,16.25 26,14.38125 C26,11.5375 24.78125,9.01875 22.83125,7.15 C23.15625,8.125 23.31875,9.18125 23.31875,10.31875 C23.31875,10.64375 23.31875,10.8875 23.31875,11.2125 C23.80625,12.1875 24.05,13.325 24.05,14.4625 C24.05,15.925 23.64375,17.30625 22.9125,18.525 L22.425,19.25625 L22.66875,20.15 L23.075,21.53125 L21.775,21.125 L20.88125,20.8 L20.06875,21.2875 C18.60625,22.18125 16.9,22.66875 15.19375,22.66875 C13.89375,22.66875 12.675,22.425 11.61875,21.9375 C11.45625,21.9375 11.29375,21.9375 11.13125,21.9375 C9.75,21.9375 8.36875,21.69375 7.15,21.2875 C9.18125,23.31875 12.025,24.61875 15.275,24.61875 C17.46875,24.61875 19.5,23.96875 21.20625,22.99375 L24.8625,24.2125 C25.59375,24.45625 26,24.05 25.75625,23.31875 L24.5375,19.5 Z" id="Path"></path>
                </g>
            </g>
        </g>
    </g>
</svg>