<?xml version="1.0" encoding="UTF-8"?>
<svg width="26px" height="26px" viewBox="0 0 26 26" version="1.1" xmlns="http://www.w3.org/2000/svg" xmlns:xlink="http://www.w3.org/1999/xlink">
    <title>tianqi-qingtian</title>
    <g id="Page-1" stroke="none" stroke-width="1" fill="none" fill-rule="evenodd">
        <g id="Artboard" transform="translate(-153.000000, -45.000000)" fill="#CFE7FF" fill-rule="nonzero">
            <g id="定位" transform="translate(32.000000, 42.000000)">
                <g id="编组-4" transform="translate(121.000000, 0.000000)">
                    <g id="tianqi-qingtian" transform="translate(0.000000, 3.000000)">
                        <path d="M13.000303,19.7133622 C9.29279687,19.7133622 6.28726929,16.7078346 6.28726929,13.0003284 C6.28726929,9.29282224 9.2927969,6.28729466 13.0003031,6.28729466 C16.7078092,6.28729466 19.7133368,9.29282226 19.7133368,13.0003284 C19.7094045,16.7062046 16.7061792,19.7094299 13.000303,19.7133622 L13.000303,19.7133622 Z M13.000303,8.30028819 C11.0993119,8.30028819 9.38550511,9.44544438 8.65802968,11.2017321 C7.93055425,12.9580199 8.33267439,14.979593 9.67688173,16.3237931 C11.0210891,17.6679932 13.0426643,18.0701024 14.7989482,17.3426175 C16.555232,16.6151325 17.7003433,14.9013195 17.7003433,13.0003284 C17.6971258,10.4059018 15.5947297,8.30350571 13.000303,8.30028819 L13.000303,8.30028819 Z M13.000303,4.73187924 C12.7331739,4.73222347 12.4768868,4.62625926 12.2879978,4.43737031 C12.0991089,4.24848136 11.9931447,3.99219419 11.9934881,3.72506509 L11.9934881,1.00747428 C11.9934881,0.451061592 12.4445505,-1.26953118e-08 13.0009632,-1.26953118e-08 C13.5573759,-1.26953118e-08 14.0084375,0.451061592 14.0084375,1.00747428 L14.0084375,3.72572525 C14.0082625,3.99292406 13.9019503,4.24910958 13.7128884,4.43792387 C13.5238265,4.62673816 13.2675019,4.73271454 13.000303,4.73253962 L13.000303,4.73187924 Z M6.44067552,7.44754158 C6.17358323,7.44794877 5.91755358,7.34090146 5.73023857,7.15050309 L3.8069478,5.22721233 C3.43384173,4.83067217 3.44329711,4.20944075 3.82829856,3.82443929 C4.21330001,3.43943783 4.83453144,3.42998243 5.2310716,3.8030885 L7.15436239,5.72637927 C7.44262723,6.01502059 7.52853217,6.44893588 7.37198967,6.82563851 C7.21544716,7.20234115 6.84731442,7.44754158 6.43938062,7.44690568 L6.44067552,7.44754158 Z M3.72569986,14.0071426 L1.00744891,14.0071426 C0.451036227,14.0071426 -2.53779297e-05,13.556081 -2.53779297e-05,12.9996683 C-2.53779297e-05,12.4432556 0.451036227,11.992194 1.00744891,11.992194 L3.72569986,11.992194 C4.28211255,11.992194 4.73317415,12.4432556 4.73317415,12.9996683 C4.73317415,13.556081 4.28211255,14.0071426 3.72569986,14.0071426 Z M4.52060926,22.4868423 C4.25348534,22.4877568 3.9972222,22.3811742 3.80953757,22.1910939 C3.62016508,22.0025208 3.51370927,21.7462805 3.51370927,21.479032 C3.51370927,21.2117835 3.62016508,20.9555432 3.80953757,20.7669701 L5.73282833,18.8436793 C5.98448973,18.5762117 6.36175535,18.4668725 6.71743749,18.5583198 C7.07311964,18.649767 7.35086448,18.9275118 7.44231171,19.283194 C7.53375894,19.6388761 7.42441977,20.0161417 7.15695216,20.2678031 L5.23429613,22.1910939 C5.0449058,22.3802276 4.78826611,22.4865757 4.52060926,22.4868423 L4.52060926,22.4868423 Z M13.000303,26.0000001 C12.7331739,26.0003409 12.4768868,25.8943767 12.2879978,25.7054878 C12.0991089,25.5165988 11.9931447,25.2603116 11.9934881,24.9931826 L11.9934881,22.2749316 C11.9934881,21.7185189 12.4445505,21.2674573 13.0009632,21.2674573 C13.5573759,21.2674573 14.0084383,21.7185189 14.0084383,22.2749316 L14.0084383,24.9931826 C14.0087827,25.2605409 13.9026374,25.5170289 13.7134625,25.7059561 C13.5242876,25.8948832 13.2676607,26.0006923 13.000303,26.0000001 Z M21.4799968,22.4868364 C21.2128641,22.4877636 20.9565905,22.3811805 20.7688997,22.1910939 L18.845609,20.2678031 C18.4725027,19.871263 18.481958,19.2500314 18.8669595,18.8650299 C19.2519611,18.4800283 19.8731927,18.470573 20.2697328,18.8436793 L22.1930236,20.7669701 C22.4812884,21.0556114 22.5671933,21.4895267 22.4106508,21.8662293 C22.2541083,22.242932 21.8859756,22.4881674 21.4780418,22.4874979 L21.4799968,22.4868364 Z M24.9931572,14.0071426 L22.2749062,14.0071426 C21.7184935,14.0071426 21.2674319,13.556081 21.2674319,12.9996683 C21.2674319,12.4432556 21.7184935,11.992194 22.2749062,11.992194 L24.9931572,11.992194 C25.5495699,11.992194 26.0006315,12.4432556 26.0006315,12.9996683 C26.0006315,13.556081 25.5495699,14.0071426 24.9931572,14.0071426 L24.9931572,14.0071426 Z M19.5592958,7.44814979 C19.2925602,7.44804323 19.0370485,7.34078867 18.8501538,7.1504777 C18.6607813,6.96190458 18.5543255,6.70566429 18.5543255,6.43841579 C18.5543255,6.17116729 18.6607813,5.914927 18.8501538,5.72635388 L20.7734445,3.80306311 C21.1699847,3.42995685 21.7912162,3.43941215 22.1762178,3.82441368 C22.5612193,4.20941522 22.5706746,4.83064681 22.1975684,5.22718694 L20.2729573,7.1504777 C20.0835082,7.3396699 19.8270334,7.44642792 19.5592958,7.44754042 L19.5592958,7.44814979 Z" id="形状"></path>
                    </g>
                </g>
            </g>
        </g>
    </g>
</svg>