<?xml version="1.0" encoding="UTF-8"?>
<svg width="32px" height="24px" viewBox="0 0 32 24" version="1.1" xmlns="http://www.w3.org/2000/svg" xmlns:xlink="http://www.w3.org/1999/xlink">
    <title>2</title>
    <g id="Page-1" stroke="none" stroke-width="1" fill="none" fill-rule="evenodd">
        <g id="Artboard" transform="translate(-60.000000, -233.000000)" fill="#FF7800" fill-rule="nonzero">
            <g id="党建工作" transform="translate(32.000000, 103.000000)">
                <g id="Group" transform="translate(28.000000, 130.000000)">
                    <path d="M31.1471931,22.9884728 C30.9639913,23.1929818 30.6975853,23.3103703 30.4162445,23.3103703 L23.607875,23.3103703 C23.8747124,22.9019498 23.982443,22.4136772 23.9044495,21.9311462 C23.4503613,19.1218197 21.9564369,16.5451793 19.6979437,14.6760564 C19.4389721,14.4616904 19.1714377,14.258874 18.8969005,14.0667113 C19.6087656,13.9167314 20.3446262,13.8371116 21.0950897,13.8371116 C26.1753552,13.8371116 30.5912819,17.4547497 31.3668029,22.2521476 C31.40955,22.5164627 31.3294988,22.7849263 31.1471931,22.9884728 Z M21.0951229,12.8515059 C19.2255353,12.8515059 17.5738981,11.9590277 16.5791654,10.5951036 C17.1908338,9.98997346 17.674294,9.29171575 18.0163371,8.51758859 C18.3867897,7.67917487 18.5746379,6.78921903 18.5746379,5.87221439 C18.5746379,4.95520976 18.3867897,4.06512117 18.0163371,3.22674063 C18.0150095,3.22388641 18.0136488,3.22109855 18.0123876,3.21814476 C18.891889,2.64792916 19.9528995,2.31481387 21.0950897,2.31481387 C24.134912,2.31481387 26.5991421,4.67347063 26.5991421,7.58312668 C26.5991421,10.4927827 24.1349452,12.8515059 21.0951229,12.8515059 Z M15.6972413,10.0922943 C15.5728499,10.2062976 15.4432811,10.3150903 15.309265,10.4188714 C14.2612313,11.2296058 12.9275753,11.7153892 11.4751037,11.7153892 C8.10359322,11.7153892 5.370468,9.09928749 5.370468,5.87221439 C5.370468,2.64507491 8.10359322,0.0289731685 11.4751037,0.0289731685 C13.7334973,0.0289731685 15.7052398,1.2028918 16.7612056,2.94792208 C16.84743,3.09056724 16.9274812,3.23706232 17.0011933,3.3869426 C17.076233,3.53961078 17.1448342,3.69569738 17.2061669,3.85516923 C17.4477477,4.48386335 17.5797393,5.16330308 17.5797393,5.87221436 C17.5797393,7.34798447 17.0078975,8.69577886 16.0650056,9.72429764 C15.947949,9.85197472 15.8252834,9.97473985 15.6972413,10.0922943 Z M16.4966914,13.8130166 C16.6896507,13.9029249 16.8795899,13.9980106 17.0666415,14.0977759 C17.2570121,14.1992339 17.4442629,14.3056038 17.6281617,14.4169188 C20.3884353,16.0870089 22.3981457,18.8408107 22.9212665,22.0767452 C22.9710496,22.3850353 22.8777561,22.6979055 22.6652486,22.9352049 C22.4517787,23.1736659 22.1412317,23.3104035 21.8133271,23.3104035 L11.7740677,23.3104035 L10.676616,23.3104035 L10.0702246,23.3104035 L1.13691343,23.3104035 C0.809008776,23.3104035 0.498461821,23.1736659 0.284991884,22.9352049 C0.072418067,22.6979055 -0.0208754655,22.3850353 0.0289076217,22.0767452 C0.893175382,16.7309035 5.81396903,12.6994683 11.4750705,12.6994683 C13.2568075,12.6994683 14.9650315,13.0990938 16.4966914,13.8130166 Z" id="Shape"></path>
                </g>
            </g>
        </g>
    </g>
</svg>