<?xml version="1.0" encoding="UTF-8"?>
<svg width="18px" height="18px" viewBox="0 0 18 18" version="1.1" xmlns="http://www.w3.org/2000/svg" xmlns:xlink="http://www.w3.org/1999/xlink">
    <title>党建</title>
    <g id="Page-1" stroke="none" stroke-width="1" fill="none" fill-rule="evenodd">
        <g id="Artboard" transform="translate(-52.000000, -121.000000)" fill="#00FEFF" fill-rule="nonzero">
            <g id="党建工作" transform="translate(32.000000, 103.000000)">
                <g id="标题" transform="translate(16.000000, 16.000000)">
                    <g id="党建" transform="translate(4.000000, 2.000000)">
                        <path d="M8.98961719,0.0174375 C13.6166719,1.75314844 16.4243906,7.30127344 14.0191406,11.7965625 L8.14952344,5.89722656 L10.390125,3.64802344 L8.98879688,2.25297656 C8.21559375,3.01052344 6.98676563,3.17203125 6.15801562,2.83804687 L1.69678125,7.30359375 L4.22329687,9.82150781 L5.907375,8.1436875 L11.775,14.03325 C8.90355469,15.6105469 4.92332812,15.1134844 1.98578906,12.0609375 L0.563367187,13.4794687 C0.989648437,14.0704219 1.34671875,14.6058281 1.790625,15.0547969 C1.75190625,15.1013437 1.62989062,15.2014688 1.62754687,15.2042109 C1.55282812,15.1920703 1.46444531,15.1631484 1.38583594,15.1631484 C0.6290625,15.1631484 0.0177890625,15.8221406 0.0177890625,16.5797109 C0.0177890625,17.3360859 0.634945312,17.9532422 1.39169531,17.9532422 C2.14889062,17.9532422 2.79653906,17.3306016 2.79653906,16.5734531 C2.79653906,16.4850469 2.77659375,16.4044688 2.76133594,16.3211719 L2.97996094,16.1064844 C6.35709375,18.3850078 10.0584609,18.6689531 14.0410312,16.2847969 L15.6855938,17.9360156 L17.9367656,15.7145859 L16.2816094,14.0414531 C21.0315469,6.88045313 14.6980781,-0.153867187 8.98961719,0.0174375 Z" id="Path"></path>
                    </g>
                </g>
            </g>
        </g>
    </g>
</svg>