<?xml version="1.0" encoding="UTF-8"?>
<svg width="18px" height="18px" viewBox="0 0 18 18" version="1.1" xmlns="http://www.w3.org/2000/svg" xmlns:xlink="http://www.w3.org/1999/xlink">
    <title>在线</title>
    <g id="Page-1" stroke="none" stroke-width="1" fill="none" fill-rule="evenodd">
        <g id="Artboard" transform="translate(-46.000000, -769.000000)" fill="#00FEFF" fill-rule="nonzero">
            <g id="人员统计" transform="translate(32.000000, 751.000000)">
                <g id="标题" transform="translate(14.000000, 16.000000)">
                    <g id="在线" transform="translate(0.000000, 2.000000)">
                        <path d="M14.7274286,16.3637143 C15.2311648,16.3637143 15.5024074,16.5962079 15.5411564,17.0611953 L15.546,17.1814286 C15.546,17.7271429 15.2731429,18 14.7274286,18 L3.27342857,18 C2.7696923,18 2.4984497,17.7675063 2.45970076,17.302519 L2.45485714,17.1822857 C2.45485714,16.6365714 2.72771428,16.3637143 3.27342857,16.3637143 L14.7274286,16.3637143 Z M15.4285714,8.8817842e-16 C17.1428571,8.8817842e-16 18,0.857142855 18,2.57142857 L18,12.156 C18,13.8702857 17.1428571,14.7274286 15.4285714,14.7274286 L2.57142857,14.7274286 C0.857142855,14.7274286 0,13.8702857 0,12.156 L0,2.57142857 C0,0.857142855 0.857142855,8.8817842e-16 2.57142857,8.8817842e-16 L15.4285714,8.8817842e-16 Z M9.60771428,3.27257142 L4.30114286,3.27257142 C3.61542857,3.27257142 3.27257142,3.61542857 3.27257142,4.30114286 L3.27257142,4.30114286 L3.27257142,7.76657143 C3.27257142,8.45228572 3.61542857,8.79514286 4.30114286,8.79514286 L4.30114286,8.79514286 L9.60771428,8.79514286 C10.2934286,8.79514286 10.6362857,8.45228572 10.6362857,7.76657143 L10.6362857,7.76657143 L10.6362857,4.30114286 C10.6362857,3.61542857 10.2934286,3.27257142 9.60771428,3.27257142 L9.60771428,3.27257142 Z M8.91857143,4.33971429 C9.20260359,4.33971429 9.43285714,4.56996785 9.43285714,4.85400001 L9.43285714,7.17685715 C9.43285714,7.4608893 9.20260358,7.69114285 8.91857143,7.69114285 L4.92685715,7.69114285 C4.642825,7.69114285 4.41257143,7.4608893 4.41257143,7.17685715 L4.41257143,4.85400001 C4.41257143,4.71760295 4.46675495,4.58679237 4.56320223,4.49034509 C4.65964951,4.39389781 4.7904601,4.33971429 4.92685715,4.33971429 L8.91857143,4.33971429 Z" id="Combined-Shape"></path>
                    </g>
                </g>
            </g>
        </g>
    </g>
</svg>