<?xml version="1.0" encoding="UTF-8"?>
<svg width="21px" height="18px" viewBox="0 0 21 18" version="1.1" xmlns="http://www.w3.org/2000/svg" xmlns:xlink="http://www.w3.org/1999/xlink">
    <title>形状结合</title>
    <g id="Page-1" stroke="none" stroke-width="1" fill="none" fill-rule="evenodd">
        <g id="Artboard" transform="translate(-1469.000000, -39.000000)" fill="#CFE7FF">
            <g id="时间" transform="translate(1469.000000, 30.000000)">
                <path d="M7,9 L7,10.714 L14,10.714 L14,9 L17.5,9 L17.5,10.714 L21,10.7142857 L21,27 L0,27 L0,10.7142857 L3.5,10.714 L3.5,9 L7,9 Z M17.5,13.2857143 L3.5,13.2857143 L3.5,24.4285714 L17.5,24.4285714 L17.5,13.2857143 Z M7.875,19.2857143 L7.875,22.7142857 L4.375,22.7142857 L4.375,19.2857143 L7.875,19.2857143 Z M12.25,19.2857143 L12.25,22.7142857 L8.75,22.7142857 L8.75,19.2857143 L12.25,19.2857143 Z M16.625,19.2857143 L16.625,22.7142857 L13.125,22.7142857 L13.125,19.2857143 L16.625,19.2857143 Z M7.875,15 L7.875,18.4285714 L4.375,18.4285714 L4.375,15 L7.875,15 Z M12.25,15 L12.25,18.4285714 L8.75,18.4285714 L8.75,15 L12.25,15 Z M16.625,15 L16.625,18.4285714 L13.125,18.4285714 L13.125,15 L16.625,15 Z" id="形状结合"></path>
            </g>
        </g>
    </g>
</svg>