<?xml version="1.0" encoding="UTF-8"?>
<svg width="18px" height="18px" viewBox="0 0 18 18" version="1.1" xmlns="http://www.w3.org/2000/svg" xmlns:xlink="http://www.w3.org/1999/xlink">
    <title>政务</title>
    <g id="Page-1" stroke="none" stroke-width="1" fill="none" fill-rule="evenodd">
        <g id="Artboard" transform="translate(-52.000000, -444.000000)" fill-rule="nonzero">
            <g id="政务大厅" transform="translate(32.000000, 427.000000)">
                <g id="标题" transform="translate(16.000000, 16.000000)">
                    <g id="政务" transform="translate(4.000000, 1.000000)">
                        <path d="M8.21466346,0.314350962 C8.46432692,0.123317308 8.77716346,0.0116826923 9.09173077,0.0218509615 C9.32927885,0.0157932692 9.56487981,0.0806971154 9.77192308,0.194495192 C9.87533654,0.249447115 9.96901442,0.324519231 10.0642067,0.393533654 C12.5048077,2.16822115 14.9434615,3.94485577 17.3840625,5.71737981 C17.5971635,5.8696875 17.7676442,6.07867788 17.8673798,6.32033654 C18.0623077,6.77920673 17.9872356,7.33564904 17.6845673,7.72961538 C17.5078125,7.97127404 17.2460337,8.14997596 16.9576442,8.23110577 C16.8520673,8.26355769 16.7423798,8.27372596 16.6346394,8.28800481 C16.6368029,10.5682933 16.6368029,12.8464183 16.6346394,15.1264904 C16.9046394,15.1468269 17.1707452,15.2422356 17.3879567,15.4066587 C17.6499519,15.6015865 17.8407692,15.889976 17.9158413,16.2067067 C17.9930769,16.5355529 17.9565144,16.8929567 17.7959856,17.1912981 C17.6030048,17.573149 17.2235337,17.8533173 16.8031731,17.9325 C16.6305288,17.9671154 16.4539904,17.9547837 16.2791827,17.9567308 L1.42485577,17.9567308 C1.18319712,17.9547837 0.939591346,17.8918269 0.7284375,17.770024 C0.436153846,17.605601 0.208557692,17.3314904 0.0969230769,17.0167067 C0.0136298077,16.7893269 -0.00454326923,16.5394471 0.0359134615,16.2999519 C0.0928125,15.9546635 0.285576923,15.6359856 0.561850962,15.4226683 C0.834014423,15.2074038 1.18514423,15.1059375 1.52826923,15.1243269 C1.53043269,12.8440385 1.52826923,10.5659135 1.52826923,8.285625 C1.25610577,8.26939904 0.988269231,8.17810096 0.766947115,8.015625 C0.421875,7.76185096 0.206610577,7.34754808 0.190384615,6.92112981 C0.161826923,6.46637019 0.383149038,6.00944712 0.748774038,5.73944712 C3.24216346,3.93252404 5.72733173,2.1234375 8.21466346,0.314350962 M8.86024038,4.23302885 C8.555625,4.27370192 8.27956731,4.4746875 8.14759615,4.75290865 C7.91415865,5.24617788 7.68461538,5.73966346 7.45117788,6.23314904 C7.41461538,6.249375 7.37394231,6.25132212 7.33737981,6.25759615 C6.86444712,6.32855769 6.39129808,6.40168269 5.92009615,6.47264423 C5.79028846,6.49298077 5.664375,6.54165865 5.5546875,6.61283654 C5.27040865,6.79153846 5.09992788,7.1325 5.12415865,7.46762019 C5.1384375,7.695 5.23579327,7.91632212 5.39826923,8.07685096 C5.72322115,8.41175481 6.05206731,8.74492788 6.37680288,9.07983173 C6.42548077,9.13262019 6.48454327,9.1771875 6.52110577,9.23819712 C6.4378125,9.76197115 6.35040865,10.2859615 6.26516827,10.8097356 C6.23661058,10.9620433 6.23271635,11.1223558 6.27338942,11.2727163 C6.33829327,11.5204327 6.50899038,11.7398077 6.73420673,11.8616106 C6.94536058,11.9773558 7.20108173,12.0056971 7.43473558,11.9449038 C7.60110577,11.9022837 7.74324519,11.8008173 7.89555288,11.7216346 C8.24884615,11.5267067 8.60430288,11.3298317 8.95759615,11.1346875 C8.97576923,11.1266827 8.99805288,11.1063462 9.01838942,11.120625 C9.46709135,11.3683413 9.91579327,11.6160577 10.3625481,11.863774 C10.6528846,12.0221394 11.0265144,12.0119712 11.3066827,11.8352163 C11.5727885,11.6749038 11.7493269,11.374399 11.7553846,11.0615625 C11.7614423,10.9051442 11.7209856,10.7508894 11.6984856,10.5966346 C11.6253606,10.1397115 11.5461779,9.68300481 11.4771635,9.22413462 C11.8142308,8.88100962 12.149351,8.53572115 12.4864183,8.19064904 C12.5757692,8.0971875 12.673125,8.01 12.7382452,7.89836538 C12.8702163,7.68526442 12.9108894,7.41915865 12.8498798,7.1775 C12.7828125,6.89733173 12.5798798,6.65372596 12.3157212,6.53798077 C12.1696875,6.47091346 12.0069952,6.45879808 11.8488462,6.43435096 C11.4183173,6.36728365 10.9858413,6.30454327 10.5533654,6.2353125 C10.5046875,6.1621875 10.4761298,6.07694712 10.4356731,5.99992788 C10.2671394,5.64252404 10.0986058,5.28317308 9.93007212,4.92576923 C9.87122596,4.80180288 9.82060096,4.67199519 9.72908654,4.56641827 C9.52420673,4.31415865 9.18108173,4.1821875 8.86024038,4.23302885 M4.64322115,14.2308173 C4.51319712,14.259375 4.39745192,14.3465625 4.33449519,14.4623077 C4.25314904,14.6063942 4.25725962,14.7933173 4.3425,14.9354567 C4.40956731,15.0492548 4.5253125,15.1303846 4.65512019,15.1548317 C4.71807692,15.1669471 4.78319712,15.1630529 4.84810096,15.1630529 L13.2501202,15.1630529 C13.3639183,15.1630529 13.4775,15.1204327 13.5627404,15.0431971 C13.6845433,14.9356731 13.7414423,14.7630288 13.7109375,14.6046635 C13.6845433,14.4482452 13.5709615,14.3102163 13.4225481,14.2533173 C13.3169712,14.2065865 13.201226,14.2228125 13.0895913,14.2208654 L4.74057692,14.2208654 C4.708125,14.2208654 4.67545673,14.2228125 4.64322115,14.2308173 L4.64322115,14.2308173 Z" id="Shape" fill="#00FEFF"></path>
                        <path d="M8.08875,7.10610577 C8.39747596,6.46853365 8.68975962,5.82079327 8.99848558,5.18127404 C9.27865385,5.77622596 9.556875,6.37117788 9.83704327,6.96807692 C9.85737981,7.01264423 9.87555288,7.05742788 9.90216346,7.10004808 C10.0990385,7.13855769 10.300024,7.16300481 10.4990625,7.19545673 C10.9722115,7.26858173 11.4453606,7.33954327 11.9182933,7.41288462 C11.434976,7.914375 10.945601,8.41175481 10.4583894,8.91129808 C10.5741346,9.61572115 10.6898798,10.3184135 10.8015144,11.0228365 C10.1985577,10.6978846 9.60360577,10.3588702 9.00064904,10.0319712 C8.94569712,10.04625 8.90112981,10.0828125 8.85245192,10.1070433 C8.29817308,10.4116587 7.74778846,10.7221154 7.1915625,11.0206731 C7.30125,10.3160337 7.42305288,9.61355769 7.53274038,8.90891827 C7.04942308,8.40742788 6.56004808,7.91199519 6.07673077,7.41245192 C6.5559375,7.33521635 7.03514423,7.26620192 7.51435096,7.19112981 C7.70495192,7.16300481 7.89576923,7.12838942 8.08875,7.10610577 L8.08875,7.10610577 Z" id="Path" fill="#000000"></path>
                    </g>
                </g>
            </g>
        </g>
    </g>
</svg>