<?xml version="1.0" encoding="UTF-8"?>
<svg width="16px" height="16px" viewBox="0 0 16 16" version="1.1" xmlns="http://www.w3.org/2000/svg" xmlns:xlink="http://www.w3.org/1999/xlink">
    <title>政策</title>
    <g id="Page-1" stroke="none" stroke-width="1" fill="none" fill-rule="evenodd">
        <g id="Artboard" transform="translate(-1406.000000, -121.000000)" fill="#00FEFF" fill-rule="nonzero">
            <g id="人员统计" transform="translate(1388.000000, 102.000000)">
                <g id="标题" transform="translate(16.000000, 16.000000)">
                    <g id="政策" transform="translate(2.000000, 3.000000)">
                        <path d="M10.1305357,2.97875 C10.0210714,2.97964286 9.91571429,2.93946429 9.83714286,2.86696429 C9.75136152,2.78982901 9.6803246,2.69773514 9.6275,2.59517857 C9.52821429,2.40642857 9.47142857,2.19982143 9.46089286,1.98875 L9.46089286,0.00875 L9.49446429,0.00875 C9.58357143,0.00875 9.67571429,0.0217857143 9.77107143,0.04875 C9.88910714,0.0857142857 10.0017857,0.136607143 10.10625,0.200714286 C10.2341071,0.274642857 10.3901786,0.384464286 10.5746429,0.527321429 C10.7591071,0.671071429 10.9905357,0.86 11.2692857,1.09464286 C11.5710714,1.35035714 11.8078571,1.56821429 11.9817857,1.74910714 C12.1546429,1.92982143 12.28875,2.08178571 12.3830357,2.20464286 C12.4773214,2.32642857 12.5371429,2.43035714 12.5591071,2.51535714 C12.5796429,2.58839286 12.5908929,2.66357143 12.5926786,2.73910714 L12.5926786,2.97892857 L10.1305357,2.97892857 L10.1305357,2.97875 Z M7.30071429,12.0001786 C7.28959542,12.0742444 7.2839848,12.1490328 7.28392857,12.2239286 L7.28392857,12.46375 C7.28392857,12.9432143 7.35732143,13.3948214 7.50196429,13.8203571 C7.64642857,14.2458929 7.84767857,14.6455357 8.10428571,15.0180357 L2.17660714,15.0180357 C1.96392857,15.0180357 1.7325,14.9591071 1.48196429,14.8421429 C0.95875,14.5958929 0.524464286,14.2067857 0.234107143,13.7242857 C0.0923214286,13.4916071 0.0171428571,13.2273214 0.01625,12.9580357 L0.01625,2.06857143 C0.01625,1.84482143 0.0717857143,1.61303571 0.183928571,1.37428571 C0.295,1.13464286 0.440535714,0.91375 0.61875,0.711071429 C0.796785714,0.509285714 1.00428571,0.341428571 1.23892857,0.208571429 C1.47357143,0.0757142857 1.71875,0.00875 1.97535714,0.00875 L8.38928571,0.00875 L8.38928571,2.00464286 C8.38928571,2.2175 8.42285714,2.43821429 8.48982143,2.66696429 C8.55696429,2.89678571 8.66267857,3.11160714 8.80821429,3.31428571 C8.95285714,3.51607143 9.13714286,3.68089286 9.36035714,3.80875 C9.58357143,3.93660714 9.84642857,4.00053571 10.1471429,4.00053571 L12.5923214,4.00053571 L12.5923214,7.97642857 C12.4989043,7.95463038 12.4032464,7.94390183 12.3073214,7.94446429 L12.0066071,7.94446429 C11.1685714,7.94446429 10.40375,8.13125 9.71232143,8.50392857 C9.03267857,8.86482143 8.45732143,9.38017857 8.03696429,10.0042857 L3.16446429,10.0042857 C2.88553571,10 2.61678571,10.1039286 2.41964286,10.2919643 C2.21732143,10.4741071 2.10464286,10.7289286 2.10946429,10.9942857 C2.10553571,11.2617857 2.21785714,11.51875 2.41964286,11.7046429 C2.61446429,11.8969643 2.88410714,12.0041071 3.16446429,12.0003571 L7.30071429,12.0003571 L7.30071429,12.0001786 Z M3.16446429,5.99642857 C2.88392857,5.99285714 2.61446429,6.09982143 2.41964286,6.29214286 C2.21785714,6.47785714 2.10571429,6.735 2.10946429,7.00232143 C2.10946429,7.27910714 2.21321429,7.51285714 2.41964286,7.70464286 C2.61678571,7.89267857 2.88571429,7.99660714 3.16446429,7.99232143 L9.44410714,7.99232143 C9.72071429,7.9975 9.98732143,7.89339286 10.1807143,7.70464286 C10.3785714,7.52017857 10.4876786,7.26607143 10.4825,7.00232143 C10.4869643,6.73642857 10.3780357,6.48017857 10.1807143,6.29214286 C9.99,6.09946429 9.72303571,5.99214286 9.44517857,5.99642857 L3.16446429,5.99642857 Z" id="形状"></path>
                        <path d="M12.0728571,8.96642857 C13.0525,8.95821429 13.9942857,9.32660714 14.6857143,9.98839286 C15.3771429,10.6492857 15.7630357,11.54625 15.7575,12.4798214 C15.7658929,13.4135714 15.3796429,14.31125 14.6857143,14.9701786 C13.9925,15.6294643 13.0519643,15.9973214 12.0728571,15.9921968 C11.0996429,15.9930357 10.1658929,15.6255357 9.47678571,14.9701786 C9.14071429,14.6485714 8.87125,14.2692857 8.6825,13.8523214 C8.48553571,13.4192857 8.38571429,12.9517857 8.38910714,12.4798214 C8.38910714,11.9903571 8.48660714,11.5317857 8.6825,11.10625 C8.87732143,10.6807143 9.14357143,10.3071429 9.47767857,9.98857143 C10.1666071,9.33321429 11.1,8.96571429 12.0728571,8.96642857 Z M12.0403571,10.2282143 C11.8726786,10.2282143 11.7469643,10.2601786 11.6632143,10.3241071 C11.5794643,10.3880357 11.5375,10.4619643 11.5375,10.5467857 L11.5375,12.3039286 C11.4696429,12.4973214 11.5007143,12.71 11.6214286,12.8783929 C11.7,12.9851786 11.7891071,13.0382143 11.8896429,13.0382143 L14.1660714,13.0382143 C14.2667857,13.0382143 14.3567857,12.9851786 14.4342857,12.8783929 C14.5144643,12.7657143 14.5553571,12.6317857 14.5516071,12.4957143 C14.5555357,12.3592857 14.5144643,12.2251786 14.4342857,12.1121429 C14.3567857,12.0053571 14.2666071,11.9523214 14.1660714,11.9523214 L12.5757143,11.9523214 L12.5757143,10.5467857 C12.5757143,10.4619643 12.5285714,10.3869643 12.4332143,10.3241071 C12.3157143,10.2542857 12.1785714,10.2208929 12.0403571,10.2282143 Z" id="形状结合" opacity="0.649999976"></path>
                    </g>
                </g>
            </g>
        </g>
    </g>
</svg>