<?xml version="1.0" encoding="UTF-8"?>
<svg width="18px" height="18px" viewBox="0 0 18 18" version="1.1" xmlns="http://www.w3.org/2000/svg" xmlns:xlink="http://www.w3.org/1999/xlink">
    <title>生活</title>
    <g id="Page-1" stroke="none" stroke-width="1" fill="none" fill-rule="evenodd">
        <g id="Artboard" transform="translate(-1402.000000, -770.000000)" fill="#00FEFF" fill-rule="nonzero">
            <g id="人员统计" transform="translate(1388.000000, 752.000000)">
                <g id="标题" transform="translate(14.000000, 16.000000)">
                    <g id="生活" transform="translate(0.000000, 2.000000)">
                        <path d="M17.2702835,7.02221905 L15.0356453,5.01875865 L15.0356453,2.09058694 C15.0356453,1.47414158 14.5347802,0.934749727 13.9183348,0.934749727 C13.3018895,0.934749727 12.801007,1.43561483 12.801007,2.09058694 L12.801007,3.05379039 L9.87286995,0.433901934 C9.29493404,-0.144033981 8.33171328,-0.144033981 7.75381198,0.433901934 L0.433434628,6.82958529 C-0.144466671,7.40750389 -0.144466671,8.29365383 0.433434628,8.87158975 L2.43691234,9.68066888 L2.43691234,15.5755044 C2.43691234,16.3846009 3.09188445,17.039573 3.90098089,17.039573 L13.687157,17.039573 C14.4962534,17.039573 15.1512428,16.3846009 15.1512428,15.5755044 L15.1512428,9.9118467 L17.2702835,9.10275027 C17.8482194,8.48630491 17.8482194,7.60015497 17.2702835,7.02221905 M11.4910455,7.36897714 C11.9919279,7.36897714 12.4157395,7.79278873 12.4157395,8.29365383 C12.4157395,8.79453624 11.9919279,9.21833053 11.4910455,9.21833053 C10.9901804,9.21833053 10.5663688,8.79451893 10.5663688,8.29365383 C10.5663688,7.75426198 10.9901804,7.36897714 11.4910455,7.36897714 M6.17414587,7.36897714 C6.67502828,7.36897714 7.09883987,7.79278873 7.09883987,8.29365383 C7.09883987,8.79453624 6.67502828,9.21833053 6.17414587,9.21833053 C5.67328077,9.21833053 5.24946917,8.79451893 5.24946917,8.29365383 C5.28799593,7.75426198 5.67328077,7.36897714 6.17414587,7.36897714 M13.2633454,12.4547163 C12.1845617,13.8417313 10.6048956,14.8819883 8.83259569,14.8819883 C7.09883987,14.8819883 5.51917375,13.8417313 4.44039005,12.493243 C4.24775628,12.2235384 4.28626573,11.8382536 4.55597031,11.6070931 C4.67155057,11.5300396 4.78713083,11.4915128 4.94123784,11.4915128 C5.13388891,11.4915128 5.32653999,11.5685663 5.44212025,11.7226733 C6.25121668,12.7629303 7.52263416,13.379393 8.87113975,13.379393 C10.2196453,13.379393 11.4910455,12.7629303 12.3001419,11.6841466 C12.4157395,11.5300396 12.6083733,11.4529688 12.8010244,11.4529688 C12.9166046,11.4529688 13.0707116,11.4915128 13.1862919,11.5685663 C13.4174697,11.7997268 13.4559965,12.1850117 13.2633454,12.4547163" id="Shape"></path>
                    </g>
                </g>
            </g>
        </g>
    </g>
</svg>