<?xml version="1.0" encoding="UTF-8"?>
<svg width="16px" height="18px" viewBox="0 0 16 18" version="1.1" xmlns="http://www.w3.org/2000/svg" xmlns:xlink="http://www.w3.org/1999/xlink">
    <title>用户</title>
    <g id="Page-1" stroke="none" stroke-width="1" fill="none" fill-rule="evenodd">
        <g id="Artboard" transform="translate(-572.000000, -769.000000)" fill="#00FEFF" fill-rule="nonzero">
            <g id="人员统计" transform="translate(556.000000, 751.000000)">
                <g id="标题" transform="translate(16.000000, 16.000000)">
                    <g id="用户" transform="translate(0.000000, 2.000000)">
                        <path d="M2.9995966,4.43876398 C2.9995966,6.88982462 5.0177829,8.87680185 7.50734187,8.87680185 C9.99690083,8.87680185 12.0150871,6.88982462 12.0150871,4.43876398 C12.0150871,1.98770335 9.99690083,0.000726118761 7.50734187,0.000726118761 C5.0177829,0.000726118761 2.9995966,1.98770335 2.9995966,4.43876398 Z M9.5753281,10.3522752 L5.82274634,10.3522752 C2.64604481,10.3519638 0.0582700629,12.9035097 0.0137962565,16.0799 L0.0137962565,16.4516728 C0.0137962565,17.7412597 2.6162059,17.7412597 5.82274634,17.7412597 L9.5753281,17.7412597 C12.7934864,17.7412597 15.3842782,17.7412597 15.3842782,16.4516728 L15.3842782,16.0799 C15.3398044,12.9035097 12.7520296,10.3519638 9.5753281,10.3522752 Z" id="Shape"></path>
                    </g>
                </g>
            </g>
        </g>
    </g>
</svg>