<?xml version="1.0" encoding="UTF-8"?>
<svg width="18px" height="18px" viewBox="0 0 18 18" version="1.1" xmlns="http://www.w3.org/2000/svg" xmlns:xlink="http://www.w3.org/1999/xlink">
    <title>自治</title>
    <g id="Page-1" stroke="none" stroke-width="1" fill="none" fill-rule="evenodd">
        <g id="Artboard" transform="translate(-1402.000000, -445.000000)" fill="#00FEFF" fill-rule="nonzero">
            <g id="人员统计" transform="translate(1388.000000, 427.000000)">
                <g id="标题" transform="translate(14.000000, 16.000000)">
                    <g id="自治" transform="translate(0.000000, 2.000000)">
                        <path d="M7.48905315,9.22598445 C4.92652799,9.24134386 2.83479066,7.18013992 2.81255614,4.61766466 C2.84800305,2.0599333 4.93152527,0.00508597867 7.48950225,0.00508597867 C10.0474792,0.00508597867 12.1310014,2.0599333 12.1664483,4.61766466 C12.1442138,7.18024461 10.0521291,9.24139205 7.48950225,9.22544909 L7.48905315,9.22598445 Z M10.6924963,13.3383234 C10.691469,12.1697016 11.2128129,11.061784 12.1139034,10.3176647 C11.2785963,9.89166611 10.3542615,9.66958568 9.41659805,9.66961078 L5.91225673,9.66961078 C2.67740509,9.64818681 0.0356725089,12.2493361 0.00701720855,15.4841317 L0.00701720855,15.829491 C0.00701720855,17.505988 2.61315493,17.505988 5.91225673,17.505988 L9.41659805,17.505988 C11.2098615,17.505988 12.8634543,17.5050898 13.9624064,17.201497 C12.0757921,16.8845177 10.6936736,15.2518297 10.6924963,13.3387724 L10.6924963,13.3383234 Z" id="Shape"></path>
                        <path d="M17.904622,12.6511976 C17.8833615,12.5481542 17.8215322,12.4579999 17.7330651,12.4010479 C17.6435947,12.3424585 17.533891,12.3234432 17.4299214,12.348503 C17.1979867,12.3962404 16.961113,12.2928218 16.8384543,12.0902695 C16.7167245,11.881308 16.7492339,11.6168243 16.9179454,11.4435629 C17.0607681,11.2815789 17.0457084,11.0345987 16.8842627,10.8911677 C16.5540472,10.5964612 16.1666523,10.3729524 15.7462388,10.2345808 C15.6467228,10.2040924 15.5391636,10.2144734 15.4473153,10.2634311 C15.355467,10.3123888 15.2868859,10.3958954 15.2567178,10.495509 C15.1869687,10.7228687 14.9771702,10.8782143 14.7393525,10.8785928 L14.7348615,10.8785928 C14.4947026,10.8763375 14.2843553,10.717072 14.2170471,10.4865269 C14.1844269,10.3876725 14.1138328,10.3058487 14.0208265,10.2590928 C13.9278202,10.212337 13.8200378,10.2044877 13.7212388,10.2372754 C13.3013067,10.3762274 12.9147328,10.6007093 12.5859094,10.8965569 C12.427708,11.0445165 12.4190705,11.2925932 12.566598,11.4511976 C12.730092,11.6244974 12.7593814,11.8849898 12.6384543,12.0902695 C12.5409178,12.2577409 12.362047,12.3610998 12.1682448,12.361976 C12.1232842,12.3617138 12.0785123,12.3561361 12.0348615,12.3453593 C11.8227153,12.3023104 11.6157647,12.4391389 11.5722867,12.6511976 C11.4834549,13.0849466 11.484219,13.5322756 11.5745322,13.9657186 C11.598045,14.0671466 11.6608929,14.1550772 11.7492459,14.210161 C11.837599,14.2652448 11.9442176,14.2829682 12.04564,14.2594311 C12.2780278,14.2109331 12.5157066,14.3144674 12.6384543,14.5176647 C12.7578209,14.7267269 12.7256755,14.9893697 12.5594124,15.1634731 C12.4159471,15.3251594 12.4304114,15.5724586 12.5917478,15.7163174 C12.9215114,16.0114127 13.3088457,16.2349748 13.7293226,16.3729042 C13.7666935,16.3845761 13.8055913,16.3906303 13.8447418,16.3908683 C14.0176384,16.390255 14.1699195,16.2769549 14.2201909,16.1115269 C14.2899634,15.8845043 14.4996045,15.7295047 14.737107,15.7293413 L14.7415981,15.7293413 C14.9786769,15.7303002 15.187578,15.8853383 15.2571669,16.1119761 C15.3058692,16.2774121 15.4579153,16.3908683 15.6303705,16.3904192 L15.6321669,16.3904192 L15.7556699,16.3702096 C16.1755592,16.2309457 16.5621011,16.0063294 16.8909993,15.710479 C17.0492007,15.5625195 17.0578382,15.3144427 16.9103106,15.1558383 C16.7485165,14.9817543 16.7193588,14.7224333 16.8384543,14.5167665 C16.9363473,14.3490539 17.1158195,14.2458147 17.3100112,14.245509 C17.3510652,14.2464733 17.3919489,14.2511328 17.4321669,14.2594311 C17.5350958,14.2834014 17.6433454,14.2646036 17.7321669,14.2073353 C17.820884,14.1500541 17.8829864,14.0596497 17.904622,13.9562874 C17.9933272,13.5259306 17.9933272,13.0820035 17.904622,12.6516467 L17.904622,12.6511976 Z M14.7384543,14.6303893 C14.201835,14.6305709 13.7179537,14.307459 13.5124724,13.8117395 C13.3069912,13.31602 13.4203826,12.7453319 13.7997656,12.3658205 C14.1791485,11.9863091 14.7497981,11.8727245 15.2455872,12.0780379 C15.7413762,12.2833512 16.064652,12.7671231 16.064652,13.3037425 C16.0639098,14.0359463 15.4706579,14.6293991 14.7384543,14.6303893 L14.7384543,14.6303893 Z" id="Shape"></path>
                    </g>
                </g>
            </g>
        </g>
    </g>
</svg>