<?xml version="1.0" standalone="no"?><!DOCTYPE svg PUBLIC "-//W3C//DTD SVG 1.1//EN" "http://www.w3.org/Graphics/SVG/1.1/DTD/svg11.dtd"><svg t="1599641970522" class="icon" viewBox="0 0 1024 1024" version="1.1" xmlns="http://www.w3.org/2000/svg" p-id="3744" xmlns:xlink="http://www.w3.org/1999/xlink" width="200" height="200"><defs><style type="text/css"></style></defs><path d="M853.242115 308.713014h-146.092169V32.524169A32.524169 32.524169 0 0 0 674.625777 0H365.646172a32.524169 32.524169 0 0 0-32.257578 32.524169v276.188845h-162.620845A32.524169 32.524169 0 0 0 138.24358 341.237183v585.16845A32.524169 32.524169 0 0 0 170.767749 959.729576H218.221045v47.986479a15.46231 15.46231 0 0 0 16.262085 16.262084h33.857126a15.46231 15.46231 0 0 0 16.262085-16.262084V959.729576h455.071774v47.986479a15.46231 15.46231 0 0 0 16.262084 16.262084h32.524169a15.46231 15.46231 0 0 0 16.262085-16.262084V959.729576h48.786253A32.524169 32.524169 0 0 0 884.699917 926.405633V341.237183a32.524169 32.524169 0 0 0-31.457802-32.524169zM381.908256 746.456337H349.384087v-258.860394h32.524169z m260.193352-437.743323H398.170341V65.048338h243.931267zM690.887861 746.456337h-32.524169v-258.860394h32.524169z" p-id="3745"></path></svg>