<?xml version="1.0" standalone="no"?><!DOCTYPE svg PUBLIC "-//W3C//DTD SVG 1.1//EN" "http://www.w3.org/Graphics/SVG/1.1/DTD/svg11.dtd"><svg class="icon" width="200px" height="200.00px" viewBox="0 0 1024 1024" version="1.1" xmlns="http://www.w3.org/2000/svg"><path fill="#2c2c2c" d="M510.3 876.8c-33.2 0-64.3-12.7-87.7-36-2.1-2.1-217.9-216.3-242.1-240.4-25-24.6-45.1-54.1-58.2-86.4-13.5-31.9-20.5-65.1-20.5-99.5 0-34.8 6.1-68.8 19.3-100.8 13.5-33.6 33.2-63.5 59-88.9 50.4-50.4 117.6-78.2 189.2-78.2 50.8 0 99.5 13.9 142.1 40.6 42.6-25.8 90.9-39.3 141.3-39.3 71.3 0 138.4 27 188.8 76.6 26.2 25.8 46.3 55.7 60.2 89.3 13.1 32.4 19.7 66.8 19.7 101.6-0.4 34.4-7.4 68-20.9 99.9-13.9 32.4-34.4 61.4-60.2 86-10.1 10.1-129.3 128-196.5 195.2l-45.1 45.1c-24.1 22.5-55.3 35.2-88.4 35.2zM368.9 197.3c-57.8 0-112.2 22.5-152.8 63.5-20.9 20.9-36.9 44.6-47.5 71.7-10.7 26.2-15.6 53.7-15.6 81.5 0 27.9 5.3 54.5 16 79.9 10.6 26.2 26.6 49.6 47.1 69.6 24.2 24.2 240.4 238.8 242.5 240.8 13.5 13.5 31.9 21.3 51.6 21.3s38.1-7.4 51.6-21.3l45.5-45.1c68-67.2 188.4-186.8 196.6-195.4l0.4-0.4c20.9-20.1 37.7-43.4 48.7-69.2 11.1-25.4 16.8-52.4 16.8-79.9 0.4-28.3-4.9-55.7-15.6-81.9-11.1-27-27.4-51.2-48.7-72.1-41-40.1-95-61.8-152.8-61.8-45.9 0-89.7 13.9-127 39.7-9 6.1-20.5 6.1-29.5 0-37.1-27-81.4-40.9-127.3-40.9z m0 0"  /><path fill="#2c2c2c" d="M260.8 425h-2.1c-13.9-1.2-24.6-13.5-23.3-27.9C242.8 311.5 312 282 348 278.4c13.9-1.2 26.6 9 27.9 22.9 1.2 13.9-9 26.6-22.9 27.9-6.6 0.8-61.4 9-66.8 72.1-0.8 13.9-12.3 23.7-25.4 23.7z m0 0"  /></svg>