<?xml version="1.0" standalone="no"?><!DOCTYPE svg PUBLIC "-//W3C//DTD SVG 1.1//EN" "http://www.w3.org/Graphics/SVG/1.1/DTD/svg11.dtd"><svg t="1599642408632" class="icon" viewBox="0 0 1024 1024" version="1.1" xmlns="http://www.w3.org/2000/svg" p-id="7057" xmlns:xlink="http://www.w3.org/1999/xlink" width="200" height="200"><defs><style type="text/css"></style></defs><path d="M673.53 546.92h-11.08a104.11 104.11 0 0 1-104-104v-97.67a104.11 104.11 0 0 1 104-104h11.08a104.11 104.11 0 0 1 104 104v97.67a104.11 104.11 0 0 1-104 104z m-11.08-257.67a56.06 56.06 0 0 0-56 56v97.67a56.06 56.06 0 0 0 56 56h11.08a56.06 56.06 0 0 0 56-56v-97.67a56.06 56.06 0 0 0-56-56zM936 881.92H400v-202.5A99.55 99.55 0 0 1 499.42 580h337.14A99.55 99.55 0 0 1 936 679.42z m-488-48h440v-154.5A51.5 51.5 0 0 0 836.56 628H499.42A51.49 51.49 0 0 0 448 679.42zM328.11 740.06a23.16 23.16 0 0 1-3-0.19C175.12 721.29 62 593.13 62 441.75a300.42 300.42 0 0 1 503.35-221.51 24 24 0 0 1-32.44 35.39A252.41 252.41 0 0 0 110 441.75c0 127.19 95 234.88 221 250.49a24 24 0 0 1-2.92 47.82z" p-id="7058"></path><path d="M401.27 527.22a23.92 23.92 0 0 1-17-7L323.08 459V288.49a24 24 0 0 1 48 0v150.6l47.16 47.16a24 24 0 0 1-17 41z" p-id="7059"></path></svg>