<?xml version="1.0" standalone="no"?><!DOCTYPE svg PUBLIC "-//W3C//DTD SVG 1.1//EN" "http://www.w3.org/Graphics/SVG/1.1/DTD/svg11.dtd"><svg class="icon" width="200px" height="200.00px" viewBox="0 0 1024 1024" version="1.1" xmlns="http://www.w3.org/2000/svg"><path fill="#2c2c2c" d="M654.007 254.732c0 78.52-28.434 199.043-142.173 199.045-113.736-0.002-142.17-120.525-142.17-199.045 0-78.518 63.652-142.168 142.17-142.168 78.522 0 142.173 63.65 142.173 142.168zM739.31 510.644c-18.745-37.493-90.653-34.185-142.542-46.96 0.24 6.1 0.37 12.277 0.37 18.524 0 76.06-18.287 142.145-45.157 175.653l-11.71-175.653h-56.869l-11.71 175.653c-26.872-33.506-45.159-99.591-45.159-175.653 0-6.247 0.13-12.424 0.37-18.525-51.888 12.773-123.795 9.466-142.542 46.961-28.434 56.871-56.87 284.342-28.434 341.21 28.436 56.87 56.87 56.87 96.676 56.87h318.463c39.81 0 68.243 0 96.678-56.87 28.436-56.868 0-284.343-28.433-341.21zM279.269 323.163c0 53.498-19.373 135.617-96.866 135.617-77.492 0-96.866-82.12-96.866-135.617 0-53.493 43.37-96.864 96.866-96.864 53.497 0.001 96.866 43.372 96.866 96.864zM267.706 500.739c5.93-11.862 17.192-19.636 31.447-25.129-18.682-4-40.6-5.58-58.883-10.08 0.167 4.155 0.252 8.365 0.252 12.621 0 51.82-12.457 96.85-30.766 119.678l-7.978-119.678H163.03l-7.976 119.678c-18.311-22.83-30.769-67.855-30.769-119.678 0-4.256 0.086-8.466 0.253-12.625-35.355 8.707-84.345 6.454-97.119 32.001C8.046 536.276-11.327 691.26 8.046 730.003 27.42 768.75 46.79 768.75 73.914 768.75H227.63c-1.965-90.66 19.052-225.962 40.076-268.011zM938.137 323.163c0 53.498-19.372 135.617-96.865 135.617-77.492 0-96.865-82.12-96.865-135.617 0-53.493 43.37-96.864 96.865-96.864 53.498 0.001 96.865 43.372 96.865 96.864zM996.257 497.527c-12.772-25.543-61.763-23.294-97.118-31.997 0.163 4.155 0.252 8.365 0.252 12.621 0 51.82-12.46 96.85-30.766 119.678l-7.979-119.678h-38.748l-7.976 119.678c-18.311-22.83-30.769-67.855-30.769-119.678 0-4.256 0.086-8.466 0.254-12.625-18.286 4.504-40.21 6.081-58.89 10.083 14.257 5.494 25.52 13.265 31.45 25.128 21.024 42.048 42.041 177.35 40.078 268.013H949.76c27.125 0 46.495 0 65.869-38.747 19.374-38.743 0-193.731-19.373-232.476z" /></svg>