<svg width="138" height="138" viewBox="0 0 138 138" fill="none" xmlns="http://www.w3.org/2000/svg">
<path d="M67.4438 68.9958C88.0768 68.9958 104.803 54.6878 104.803 37.0428C104.803 19.3938 88.0768 5.09082 67.4438 5.09082C46.8128 5.09082 30.0838 19.3938 30.0858 37.0428C30.0858 54.6878 46.8128 68.9958 67.4448 68.9958H67.4438ZM84.5698 79.6498H53.4338C26.7818 79.6498 5.17383 98.1268 5.17383 120.92V123.584C5.17383 132.9 26.7818 132.909 53.4338 132.909H84.5698C111.219 132.909 132.826 132.565 132.826 123.584V120.921C132.826 98.1268 111.221 79.6498 84.5698 79.6498V79.6498Z" stroke="black" stroke-width="9"/>
</svg>
