<?xml version="1.0" standalone="no"?><!DOCTYPE svg PUBLIC "-//W3C//DTD SVG 1.1//EN" "http://www.w3.org/Graphics/SVG/1.1/DTD/svg11.dtd"><svg t="1599642057695" class="icon" viewBox="0 0 1024 1024" version="1.1" xmlns="http://www.w3.org/2000/svg" p-id="4692" xmlns:xlink="http://www.w3.org/1999/xlink" width="200" height="200"><defs><style type="text/css"></style></defs><path d="M684.29824 671.27808a20.01408 20.01408 0 0 1-20.03456-19.9936 20.01408 20.01408 0 0 1 20.03456-19.9936h168.36096c66.3552 0 120.1408 53.67296 120.1408 119.8848 0 66.21184-53.79072 119.88992-120.1408 119.88992H712.3456a20.01408 20.01408 0 0 1-20.03456-19.9936 20.01408 20.01408 0 0 1 20.03456-19.9936h140.3136c44.22144 0 80.07168-35.77344 80.07168-79.90272 0-44.12416-35.85024-79.8976-80.07168-79.8976h-168.36096zM351.72352 831.0784a20.01408 20.01408 0 0 1 20.03456 19.9936 20.01408 20.01408 0 0 1-20.03456 19.9936H160.37888a20.01408 20.01408 0 0 1-20.03968-19.9936 20.01408 20.01408 0 0 1 20.03968-19.9936h191.34464z m28.04736-199.7824a20.01408 20.01408 0 0 1 20.03456 19.98848 20.01408 20.01408 0 0 1-20.03456 19.9936H183.53664C110.54592 671.27808 51.2 613.34528 51.2 541.65504c0-66.69824 51.61984-122.20416 120.40704-129.03424 16.26624-0.256 52.93056-0.45568 99.92192-0.58368a20.01408 20.01408 0 0 1 20.09088 19.93728 20.01408 20.01408 0 0 1-19.98336 20.04992c-46.80192 0.128-83.3792 0.32768-97.7152 0.47616-46.83776 4.70016-82.65216 43.2128-82.65216 89.15456 0 49.408 41.216 89.63584 92.26752 89.63584h196.23424z m412.71808-179.27168a20.01408 20.01408 0 0 1-20.03456-19.9936 20.01408 20.01408 0 0 1 20.03456-19.9936h120.20736a20.01408 20.01408 0 0 1 20.03456 19.9936 20.01408 20.01408 0 0 1-20.03456 19.9936h-120.20736z m-420.73088 399.1552c0 16.57344 71.63904 40.67328 160.27648 40.67328 88.63744 0 160.27648-24.09984 160.27648-40.66816 0-12.34944-47.03232-32.27648-114.10432-38.5792a2900.5824 2900.5824 0 0 1-31.98976 32.48128 20.06528 20.06528 0 0 1-28.3648 0 2900.58752 2900.58752 0 0 1-31.98976-32.48128c-67.072 6.2976-114.10432 26.22976-114.10432 38.5792z m200.0896-79.22688c92.60032 6.74816 160.53248 34.75456 160.53248 79.232 0 50.43712-89.81504 80.65536-200.3456 80.65536s-200.3456-30.21824-200.3456-80.65536c0-44.47744 67.93216-72.48384 160.5376-79.232a20.06016 20.06016 0 0 1 15.90784 6.0928 2730.86464 2730.86464 0 0 0 23.90016 24.5248 2730.89024 2730.89024 0 0 0 23.90016-24.5248 20.06016 20.06016 0 0 1 15.90784-6.0928z m115.24096-473.33888a19.96288 19.96288 0 0 1-1.32096 28.24192L509.76768 486.79424a20.0704 20.0704 0 0 1-26.9824 0L378.30656 391.84384a19.96288 19.96288 0 0 1-1.32096-28.24192 20.06528 20.06528 0 0 1 28.29824-1.32096L496.2816 444.9792l162.5088-147.68128a20.06528 20.06528 0 0 1 28.30336 1.32096zM547.19488 844.9536a20.06016 20.06016 0 0 1-30.32064 0c-176.64-203.9808-265.32864-357.15584-265.32864-462.8992C251.5456 222.11072 376.95488 92.16 532.03456 92.16c155.0848 0 280.48896 129.95072 280.48896 289.88928 0 105.74336-88.68864 258.9184-265.32864 462.8992z m225.25952-462.8992c0-138.18368-107.81184-249.9072-240.41984-249.9072-132.608 0-240.41472 111.72352-240.41472 249.9072 0 90.20416 79.91296 230.94272 240.41472 419.1232 160.50176-188.18048 240.41984-328.91904 240.41984-419.1232z" p-id="4693"></path></svg>