<svg width="64" height="64" viewBox="0 0 64 64" fill="none" xmlns="http://www.w3.org/2000/svg">
<g filter="url(#filter0_d_503_825)">
<circle cx="32" cy="30" r="22" fill="white"/>
</g>
<path d="M31.934 23.3291C31.2692 23.3291 30.6755 22.704 30.6755 21.9999C30.6755 21.2958 31.2691 20.6708 31.934 20.6708C32.674 20.6708 33.1924 21.2958 33.1924 21.9999C33.1924 22.8584 32.5989 23.3291 31.934 23.3291ZM35.4085 21.2959C35.0405 21.2959 34.815 20.9834 34.815 20.6708C34.815 20.0458 34.2966 19.5 33.6318 19.5H30.1533C29.4885 19.5 28.9701 20.0459 28.9701 20.6708C28.9701 21.0624 28.6733 21.2959 28.3765 21.2959H27.9333C27.5653 21.2959 27.3398 21.6084 27.3398 21.9209V23.7959C27.3398 24.1874 27.6366 24.4209 27.9333 24.4209H35.7768C36.1448 24.4209 36.3704 24.1084 36.3704 23.7959V21.9209C36.3704 21.5293 36.0735 21.2959 35.7768 21.2959H35.4085H35.4085ZM38.0006 29.3456L31.4156 37.4785C31.2692 37.7119 30.8221 37.6367 30.6004 37.3994L26.1603 33.5703C26.0851 33.4911 26.0139 33.3369 26.1603 33.2578L26.9755 32.2412C27.0507 32.162 27.1971 32.162 27.2723 32.2412L30.7508 35.2119C30.8972 35.291 31.0476 35.291 31.194 35.1328L36.667 28.0956C36.7422 27.9374 36.8887 27.9374 36.9639 28.0165L38.0006 28.954C38.147 29.0332 38.2223 29.1122 38.0006 29.3456V29.3456V29.3456ZM38.0006 22.704V25.4414C38.0006 25.833 37.7038 26.0664 37.4071 26.0664L26.3819 26.1456C26.0139 26.1456 25.7884 25.833 25.7884 25.5206V22.7832C25.7884 22.3916 25.4915 22.1582 25.1948 22.1582H24.8268C23.8651 22.079 23.4219 22.7041 23.4219 23.5664V38.8115C23.4219 39.5156 24.0867 40.4531 24.9771 40.4531H38.812C39.552 40.4531 40.3672 39.5947 40.3672 38.8116V23.4833C40.3672 22.7792 39.8488 22.0751 39.0336 22.0751H38.6656C38.2975 22.0791 38.0008 22.3125 38.0008 22.704L38.0006 22.704V22.704Z" fill="url(#paint0_linear_503_825)"/>
<defs>
<filter id="filter0_d_503_825" x="0" y="0" width="64" height="64" filterUnits="userSpaceOnUse" color-interpolation-filters="sRGB">
<feFlood flood-opacity="0" result="BackgroundImageFix"/>
<feColorMatrix in="SourceAlpha" type="matrix" values="0 0 0 0 0 0 0 0 0 0 0 0 0 0 0 0 0 0 127 0" result="hardAlpha"/>
<feMorphology radius="2" operator="dilate" in="SourceAlpha" result="effect1_dropShadow_503_825"/>
<feOffset dy="2"/>
<feGaussianBlur stdDeviation="4"/>
<feComposite in2="hardAlpha" operator="out"/>
<feColorMatrix type="matrix" values="0 0 0 0 0.2375 0 0 0 0 0.2375 0 0 0 0 0.2375 0 0 0 0.05 0"/>
<feBlend mode="normal" in2="BackgroundImageFix" result="effect1_dropShadow_503_825"/>
<feBlend mode="normal" in="SourceGraphic" in2="effect1_dropShadow_503_825" result="shape"/>
</filter>
<linearGradient id="paint0_linear_503_825" x1="31.8945" y1="19.5" x2="31.8945" y2="40.4531" gradientUnits="userSpaceOnUse">
<stop stop-color="#6792F7"/>
<stop offset="1" stop-color="#4D79E0"/>
</linearGradient>
</defs>
</svg>
