<svg width="64" height="64" viewBox="0 0 64 64" fill="none" xmlns="http://www.w3.org/2000/svg">
<g filter="url(#filter0_d_502_793)">
<circle cx="32" cy="30" r="22" fill="white"/>
</g>
<g clip-path="url(#clip0_502_793)">
<path fill-rule="evenodd" clip-rule="evenodd" d="M44.1129 26.185C44.1067 26.2218 44.1128 26.2597 44.1302 26.2927L45.5 28.771L44.3847 28.2702C44.36 28.2592 44.333 28.2541 44.3059 28.2552C44.2789 28.2564 44.2524 28.2638 44.2287 28.2769C44.205 28.29 44.1847 28.3084 44.1693 28.3307C44.1539 28.353 44.1439 28.3786 44.1401 28.4054L43.9707 29.617L42.5113 26.976C42.5102 26.9255 42.4983 26.8757 42.4763 26.8302C42.3669 26.8419 42.2558 26.8486 42.1432 26.8486C42.1062 26.8486 42.0697 26.8461 42.0331 26.8437C42.0159 26.8425 41.9988 26.8414 41.9815 26.8405C41.9635 26.8835 41.9512 26.9287 41.9512 26.976L40.4921 29.617L40.3227 28.4054C40.319 28.3785 40.3091 28.3529 40.2938 28.3305C40.2784 28.3081 40.258 28.2896 40.2343 28.2765C40.2105 28.2634 40.1841 28.256 40.1569 28.2549C40.1298 28.2538 40.1028 28.259 40.0781 28.2702L38.9625 28.7714L40.3322 26.293C40.3342 26.289 40.3353 26.2849 40.3364 26.2808C40.3372 26.2777 40.3381 26.2746 40.3393 26.2715C39.932 25.9838 39.5997 25.6025 39.3704 25.1597C39.1411 24.7169 39.0214 24.2255 39.0214 23.7268C39.0214 22.8989 39.3503 22.1048 39.9357 21.5194C40.5212 20.9339 41.3152 20.605 42.1432 20.605C42.9711 20.605 43.7651 20.9339 44.3506 21.5194C44.936 22.1048 45.2649 22.8989 45.2649 23.7268C45.265 24.246 45.1353 24.7571 44.8877 25.2135C44.6401 25.6699 44.2824 26.0572 43.8472 26.3403L43.9058 26.3185C43.9251 26.3063 43.9447 26.2944 43.9642 26.2824C44.0149 26.2516 44.0656 26.2207 44.1129 26.185ZM41.6389 22.8749C41.5999 22.9033 41.5546 22.9218 41.5068 22.9288L40.3322 23.0993L41.1818 23.928C41.2164 23.9618 41.2424 24.0035 41.2574 24.0496C41.2724 24.0956 41.276 24.1446 41.2679 24.1923L41.0671 25.3616L42.1181 24.8093C42.1608 24.7869 42.2084 24.7752 42.2566 24.7752C42.3049 24.7752 42.3524 24.7869 42.3952 24.8093L43.4455 25.3616L43.2447 24.1923C43.2367 24.1446 43.2403 24.0956 43.2553 24.0496C43.2703 24.0035 43.2962 23.9618 43.3308 23.928L44.1803 23.0993L43.0054 22.9288C42.9087 22.914 42.8243 22.8536 42.7813 22.7657L42.2565 21.7013L41.7309 22.7657C41.7095 22.809 41.678 22.8465 41.6389 22.8749ZM42.1238 27.385L42.9662 28.9094L43.7501 30.3286C43.7518 30.3315 43.7539 30.334 43.7559 30.3365C43.7577 30.3387 43.7596 30.3409 43.7611 30.3434V38.6792C43.7611 38.9749 43.6283 39.2252 43.3965 39.3653C43.2754 39.4387 43.1367 39.4754 42.9931 39.4754C42.8494 39.4754 42.7008 39.4387 42.56 39.3653C42.5406 39.3554 40.3453 38.6019 37.7371 38.6019C35.2555 38.6019 34.4685 39.2333 34.4611 39.2432L34.4106 39.3084L34.3333 39.3483C34.1201 39.4514 33.9458 39.4581 33.8141 39.432L31.8436 39.444C31.8436 39.444 31.5814 39.4659 31.4258 39.4659C31.3001 39.4659 31.1741 39.4397 31.0509 39.3875L30.9853 39.36L30.9359 39.3088C30.9271 39.2996 29.8555 38.6022 27.3839 38.6022C24.8374 38.6022 22.8401 39.3402 22.82 39.3512C22.6735 39.4309 22.5331 39.4701 22.3989 39.4701C22.2984 39.4709 22.1992 39.4471 22.11 39.4006C22.0208 39.3542 21.9444 39.2865 21.8875 39.2036C21.7922 39.067 21.7442 38.8906 21.7442 38.6799V23.442C21.7442 22.9697 22.0026 22.3637 22.4967 22.1206C22.5931 22.0726 24.9398 21.2679 27.5586 21.2679C29.9635 21.2679 31.1526 21.8901 31.4106 22.1322C31.6005 22.2282 31.7699 22.3779 31.9065 22.5529L33.5303 22.542C33.6391 22.3736 33.7831 22.2275 33.9666 22.1312C34.2214 21.8784 35.3543 20.9068 37.748 20.9068C38.4609 20.9068 39.1891 21.0264 39.8406 21.1627C39.4745 21.49 39.1827 21.8918 38.9849 22.3413C38.787 22.7907 38.6877 23.2773 38.6937 23.7684C38.6996 24.2594 38.8106 24.7434 39.0192 25.188C39.2278 25.6325 39.5292 26.0273 39.9031 26.3456L38.4027 29.0601C38.3854 29.0922 38.3785 29.129 38.3831 29.1652C38.3876 29.2015 38.4034 29.2354 38.4281 29.2622C38.4529 29.2891 38.4854 29.3075 38.5212 29.315C38.5569 29.3225 38.5941 29.3186 38.6275 29.304L40.0086 28.6832L40.2182 30.1832C40.2233 30.2195 40.2396 30.2533 40.265 30.2797C40.2903 30.3062 40.3234 30.3241 40.3594 30.3307C40.3954 30.3375 40.4326 30.3327 40.4658 30.3172C40.4989 30.3016 40.5263 30.2759 40.544 30.2439L42.1238 27.385ZM32.4984 23.239L32.6032 38.7508L33.2716 38.7469L33.1668 23.2348L32.4984 23.239Z" fill="url(#paint0_linear_502_793)"/>
</g>
<defs>
<filter id="filter0_d_502_793" x="0" y="0" width="64" height="64" filterUnits="userSpaceOnUse" color-interpolation-filters="sRGB">
<feFlood flood-opacity="0" result="BackgroundImageFix"/>
<feColorMatrix in="SourceAlpha" type="matrix" values="0 0 0 0 0 0 0 0 0 0 0 0 0 0 0 0 0 0 127 0" result="hardAlpha"/>
<feMorphology radius="2" operator="dilate" in="SourceAlpha" result="effect1_dropShadow_502_793"/>
<feOffset dy="2"/>
<feGaussianBlur stdDeviation="4"/>
<feComposite in2="hardAlpha" operator="out"/>
<feColorMatrix type="matrix" values="0 0 0 0 0.2375 0 0 0 0 0.2375 0 0 0 0 0.2375 0 0 0 0.05 0"/>
<feBlend mode="normal" in2="BackgroundImageFix" result="effect1_dropShadow_502_793"/>
<feBlend mode="normal" in="SourceGraphic" in2="effect1_dropShadow_502_793" result="shape"/>
</filter>
<linearGradient id="paint0_linear_502_793" x1="33.6221" y1="20.605" x2="33.6221" y2="39.4754" gradientUnits="userSpaceOnUse">
<stop stop-color="#FFA6A0"/>
<stop offset="1" stop-color="#FF0E00"/>
</linearGradient>
<clipPath id="clip0_502_793">
<rect width="24" height="24" fill="white" transform="translate(21.5 18)"/>
</clipPath>
</defs>
</svg>
