<svg width="64" height="64" viewBox="0 0 64 64" fill="none" xmlns="http://www.w3.org/2000/svg">
<g filter="url(#filter0_d_502_818)">
<circle cx="32" cy="30" r="22" fill="white"/>
</g>
<path fill-rule="evenodd" clip-rule="evenodd" d="M30.0828 19.479C31.3031 19.6459 32.4523 20.1514 33.4 20.938C32.3239 21.3253 31.3575 21.9671 30.5832 22.8087C29.8089 23.6504 29.2497 24.6668 28.9533 25.7714H22.6C22.6448 24.5405 23.0336 23.3468 23.7221 22.3256C24.4106 21.3044 25.3714 20.4964 26.4957 19.9933C27.6199 19.4902 28.8626 19.312 30.0828 19.479ZM41.2093 25.7714H30.3493C30.6572 24.8517 31.1934 24.0252 31.9076 23.3691C32.6219 22.713 33.4909 22.2489 34.4333 22.02C34.8718 21.9124 35.3218 21.8586 35.7733 21.86C35.8268 21.8589 35.8802 21.8612 35.9333 21.8667C37.1072 21.8972 38.2433 22.2883 39.1872 22.9869C40.1311 23.6854 40.8371 24.6576 41.2093 25.7714ZM32.4667 32.6267H33.5593V32.6274C33.6831 32.6274 33.8018 32.6765 33.8893 32.7641C33.9768 32.8516 34.026 32.9703 34.026 33.094C34.026 33.2178 33.9768 33.3365 33.8893 33.424C33.8018 33.5115 33.6831 33.5607 33.5593 33.5607H32.4667V34.652C32.4667 34.7758 32.4175 34.8945 32.33 34.982C32.2425 35.0695 32.1238 35.1187 32 35.1187C31.8762 35.1187 31.7575 35.0695 31.67 34.982C31.5825 34.8945 31.5333 34.7758 31.5333 34.652V33.56H30.4407C30.3169 33.56 30.1982 33.5109 30.1107 33.4234C30.0232 33.3358 29.974 33.2171 29.974 33.0934C29.974 32.9696 30.0232 32.8509 30.1107 32.7634C30.1982 32.6759 30.3169 32.6267 30.4407 32.6267H31.5333V31.5334C31.5333 31.4096 31.5825 31.2909 31.67 31.2034C31.7575 31.1159 31.8762 31.0667 32 31.0667C32.1238 31.0667 32.2425 31.1159 32.33 31.2034C32.4175 31.2909 32.4667 31.4096 32.4667 31.5334V32.6267ZM20.4667 27.1053H43.5333C43.6569 27.1053 43.7754 27.1543 43.8628 27.2416C43.9503 27.3288 43.9996 27.4471 44 27.5707V29.2373C44 29.3611 43.9508 29.4798 43.8633 29.5673C43.7758 29.6548 43.6571 29.704 43.5333 29.704H43.4573C43.3459 29.7051 43.2385 29.746 43.1547 29.8194C43.0708 29.8928 43.0159 29.9937 43 30.104C42.7196 31.9255 41.9911 33.6488 40.88 35.119C39.7688 36.5893 38.3098 37.7605 36.634 38.5273C36.553 38.5635 36.4842 38.6222 36.4357 38.6964C36.3872 38.7707 36.3612 38.8573 36.3607 38.946V40.118C36.3607 40.2418 36.3115 40.3605 36.224 40.448C36.1365 40.5355 36.0178 40.5847 35.894 40.5847H28.102C27.9782 40.5847 27.8595 40.5355 27.772 40.448C27.6845 40.3605 27.6353 40.2418 27.6353 40.118V38.9467C27.6344 38.8579 27.6082 38.7713 27.5598 38.6969C27.5114 38.6225 27.4428 38.5634 27.362 38.5267C25.6874 37.7593 24.2296 36.5882 23.1194 35.1183C22.0092 33.6485 21.2814 31.9259 21.0013 30.1053C20.9854 29.9951 20.9306 29.8941 20.8467 29.8207C20.7628 29.7474 20.6554 29.7064 20.544 29.7053H20.4667C20.4054 29.7053 20.3447 29.6933 20.2881 29.6698C20.2315 29.6464 20.18 29.612 20.1367 29.5687C20.0933 29.5253 20.059 29.4739 20.0355 29.4173C20.0121 29.3606 20 29.3 20 29.2387V27.572C20 27.4482 20.0492 27.3295 20.1367 27.242C20.2242 27.1545 20.3429 27.1053 20.4667 27.1053ZM34.3319 35.6971C34.8803 34.9769 35.1773 34.0966 35.1773 33.1913V30.858C35.1775 30.7458 35.1426 30.6363 35.0776 30.5447C35.0126 30.4532 34.9207 30.3842 34.8147 30.3473L32.18 29.428C32.0647 29.388 31.9393 29.388 31.824 29.428L29.186 30.3473C29.0798 30.3841 28.9878 30.453 28.9227 30.5446C28.8575 30.6361 28.8226 30.7457 28.8227 30.858V33.1913C28.8227 34.0966 29.1197 34.9769 29.6681 35.6971C30.2165 36.4173 30.986 36.9378 31.8587 37.1787C31.9512 37.2041 32.0488 37.2041 32.1413 37.1787C33.014 36.9378 33.7835 36.4173 34.3319 35.6971Z" fill="url(#paint0_linear_502_818)"/>
<defs>
<filter id="filter0_d_502_818" x="0" y="0" width="64" height="64" filterUnits="userSpaceOnUse" color-interpolation-filters="sRGB">
<feFlood flood-opacity="0" result="BackgroundImageFix"/>
<feColorMatrix in="SourceAlpha" type="matrix" values="0 0 0 0 0 0 0 0 0 0 0 0 0 0 0 0 0 0 127 0" result="hardAlpha"/>
<feMorphology radius="2" operator="dilate" in="SourceAlpha" result="effect1_dropShadow_502_818"/>
<feOffset dy="2"/>
<feGaussianBlur stdDeviation="4"/>
<feComposite in2="hardAlpha" operator="out"/>
<feColorMatrix type="matrix" values="0 0 0 0 0.2375 0 0 0 0 0.2375 0 0 0 0 0.2375 0 0 0 0.05 0"/>
<feBlend mode="normal" in2="BackgroundImageFix" result="effect1_dropShadow_502_818"/>
<feBlend mode="normal" in="SourceGraphic" in2="effect1_dropShadow_502_818" result="shape"/>
</filter>
<linearGradient id="paint0_linear_502_818" x1="32" y1="19.4181" x2="32" y2="40.5847" gradientUnits="userSpaceOnUse">
<stop stop-color="#6FFFD4"/>
<stop offset="1" stop-color="#4DC5A1"/>
</linearGradient>
</defs>
</svg>
