<svg width="64" height="64" viewBox="0 0 64 64" fill="none" xmlns="http://www.w3.org/2000/svg">
<g filter="url(#filter0_d_502_794)">
<circle cx="32" cy="30" r="22" fill="white"/>
</g>
<g clip-path="url(#clip0_502_794)">
<path d="M31.6664 33.4584C34.7144 33.4584 38.0936 33.7236 41.8064 34.2564C41.7692 35.778 40.808 39.6 32.12 39.6C23.27 39.648 22.4288 35.6976 22.4264 34.2048C25.6424 33.7056 28.7228 33.4584 31.6664 33.4584V33.4584ZM32 19.2C37.8752 20.4036 43.808 23.7144 43.988 25.338C44.168 26.7216 42.3692 28.7664 41.8304 29.37L41.6576 32.418C38.0216 31.9116 34.6916 31.6584 31.6664 31.6584C28.6688 31.6584 25.5428 31.9068 22.2848 32.4024L22.172 29.3688C21.632 28.7688 19.8332 26.7216 20.0144 25.3368C20.192 23.7156 26.246 20.2236 32 19.2ZM32.1944 22.608C32.1066 22.5632 32.0045 22.555 31.9107 22.5854C31.8168 22.6158 31.7389 22.6822 31.694 22.77L30.6836 24.744L28.496 25.0536C28.4275 25.0636 28.3631 25.0924 28.3099 25.1368C28.2568 25.1812 28.217 25.2394 28.195 25.3051C28.173 25.3708 28.1696 25.4412 28.1852 25.5087C28.2009 25.5761 28.2349 25.6379 28.2836 25.6872L29.8436 27.2604L29.4596 29.4468C29.4478 29.5145 29.455 29.5842 29.4804 29.6481C29.5058 29.7119 29.5484 29.7675 29.6034 29.8087C29.6585 29.8498 29.7239 29.8749 29.7923 29.8811C29.8608 29.8874 29.9296 29.8745 29.9912 29.844L31.964 28.8444L33.9176 29.8872C33.9785 29.9201 34.0474 29.9352 34.1164 29.9308C34.1855 29.9264 34.2519 29.9028 34.3082 29.8625C34.3644 29.8222 34.4083 29.767 34.4347 29.7031C34.4611 29.6391 34.469 29.569 34.4576 29.5008L34.1204 27.3048L35.7104 25.7628C35.7618 25.7151 35.7987 25.6538 35.8168 25.586C35.8349 25.5182 35.8335 25.4467 35.8126 25.3797C35.7918 25.3127 35.7524 25.2529 35.6991 25.2073C35.6458 25.1617 35.5806 25.1322 35.5112 25.122L33.3284 24.7668L32.36 22.776C32.3248 22.7037 32.2671 22.6448 32.1956 22.608H32.1944Z" fill="url(#paint0_linear_502_794)"/>
</g>
<defs>
<filter id="filter0_d_502_794" x="0" y="0" width="64" height="64" filterUnits="userSpaceOnUse" color-interpolation-filters="sRGB">
<feFlood flood-opacity="0" result="BackgroundImageFix"/>
<feColorMatrix in="SourceAlpha" type="matrix" values="0 0 0 0 0 0 0 0 0 0 0 0 0 0 0 0 0 0 127 0" result="hardAlpha"/>
<feMorphology radius="2" operator="dilate" in="SourceAlpha" result="effect1_dropShadow_502_794"/>
<feOffset dy="2"/>
<feGaussianBlur stdDeviation="4"/>
<feComposite in2="hardAlpha" operator="out"/>
<feColorMatrix type="matrix" values="0 0 0 0 0.2375 0 0 0 0 0.2375 0 0 0 0 0.2375 0 0 0 0.05 0"/>
<feBlend mode="normal" in2="BackgroundImageFix" result="effect1_dropShadow_502_794"/>
<feBlend mode="normal" in="SourceGraphic" in2="effect1_dropShadow_502_794" result="shape"/>
</filter>
<linearGradient id="paint0_linear_502_794" x1="32.0011" y1="19.2" x2="32.0011" y2="39.6004" gradientUnits="userSpaceOnUse">
<stop stop-color="#FFD953"/>
<stop offset="1" stop-color="#FF9900"/>
</linearGradient>
<clipPath id="clip0_502_794">
<rect width="24" height="24" fill="white" transform="translate(20 18)"/>
</clipPath>
</defs>
</svg>
